<?xml version="1.0" ?><svg viewBox="0 0 32 32" xmlns="http://www.w3.org/2000/svg"><title/><g data-name="Online Shop" id="Online_Shop"><path d="M20.88,15.35l-1-2.45a.5.5,0,0,0-.65-.28.51.51,0,0,0-.28.65l.83,2.06H12.2L13,13.27a.51.51,0,0,0-.28-.65.5.5,0,0,0-.65.28l-1,2.45a.49.49,0,0,0-.43.48v1.38a.48.48,0,0,0,.22.4l.82,3.83a.49.49,0,0,0,.49.39h7.56a.49.49,0,0,0,.49-.39l.82-3.83a.48.48,0,0,0,.22-.4V15.83A.49.49,0,0,0,20.88,15.35Zm-9.19,1h8.62v.38H11.69Zm7.69,4.5H12.62L12,17.71h8.1Z"/><path d="M26,1.5H6a.5.5,0,0,0-.5.5V6.59l-.72.73a.48.48,0,0,0-.12.22.64.64,0,0,0,0,.07s0,0,0,.06A3.44,3.44,0,0,0,5.5,10V30a.5.5,0,0,0,.5.5H26a.5.5,0,0,0,.5-.5V2A.5.5,0,0,0,26,1.5ZM6.5,8.17h4.08v0a2.13,2.13,0,0,1-.21.58c0,.05,0,.09-.07.14a2.83,2.83,0,0,1-.39.52,2.56,2.56,0,0,1-1.78.74l-.1,0A2.47,2.47,0,0,1,6.5,9.56Zm10.08,0a2.5,2.5,0,0,1-2.44,2h0a2.5,2.5,0,0,1-2.44-2Zm6,0a2.5,2.5,0,0,1-2.44,2h0a2.5,2.5,0,0,1-2.44-2Zm-14.08,3,.18,0,.25,0a2.4,2.4,0,0,0,.38-.12l.23-.08a2.82,2.82,0,0,0,.38-.21l.18-.1a3.31,3.31,0,0,0,.5-.41A3.8,3.8,0,0,0,11,9.65l.1-.17,0,0a3.48,3.48,0,0,0,3,1.72h0a3.47,3.47,0,0,0,3-1.72,3.5,3.5,0,0,0,3,1.72h0A3.49,3.49,0,0,0,23.5,8.57V26.7H8.5Zm14.26-4H17.94l.92-1.87h4.47Zm-5.94,0H11.9l.92-1.87h4.92Zm-6,0H6.5V7L8.21,5.3h3.5ZM25.5,29.5H6.5V10.75a3.36,3.36,0,0,0,1,.33V27.2a.5.5,0,0,0,.5.5H24a.5.5,0,0,0,.5-.5V4.8s0,0,0,0,0,0,0-.07a.59.59,0,0,0-.06-.14s0,0,0,0h0a.51.51,0,0,0-.16-.13h0a.25.25,0,0,0-.12,0H8a.47.47,0,0,0-.35.15L6.5,5.59V2.5h19Z"/></g></svg>